<?xml version="1.0" encoding="utf-8"?>
<!-- Generator: Adobe Illustrator 16.0.0, SVG Export Plug-In . SVG Version: 6.00 Build 0)  -->
<!DOCTYPE svg PUBLIC "-//W3C//DTD SVG 1.1//EN" "http://www.w3.org/Graphics/SVG/1.1/DTD/svg11.dtd">
<svg version="1.1" id="martini" xmlns="http://www.w3.org/2000/svg" xmlns:xlink="http://www.w3.org/1999/xlink" x="0px" y="0px"
	 width="400px" height="25px" viewBox="0 0 274 311" enable-background="new 0 0 274 311" xml:space="preserve">
<g id="martini_parts">
	<path fill="#F6AB45" d="M213,19.636c22.592,0,40.909,18.321,40.909,40.909S235.592,101.455,213,101.455
		s-40.909-18.321-40.909-40.909S190.408,19.636,213,19.636"/>
	<path fill="#014463" d="M213,115.091c-30.003,0-54.545-24.546-54.545-54.545S182.997,6,213,6s54.545,24.546,54.545,54.545
		S243.003,115.091,213,115.091 M213,19.636c-22.499,0-40.909,18.411-40.909,40.909s18.41,40.909,40.909,40.909
		s40.909-18.411,40.909-40.909S235.499,19.636,213,19.636"/>
	<path fill="#FFE27A" d="M213,33.272c15.062,0,27.272,12.212,27.272,27.273S228.062,87.818,213,87.818s-27.272-12.212-27.272-27.273
		S197.938,33.272,213,33.272"/>
	<path fill="#ECEFF9" d="M213,67.364H22.091v20.455c0,19.089,15.002,34.091,34.091,34.091h13.637c4.092,0,6.818,2.727,6.818,6.818
		v6.818c0,22.499,18.41,40.91,40.909,40.91c22.498,0,40.909-18.411,40.909-40.91v-6.818c0-4.092,2.729-6.818,6.817-6.818h13.637
		c19.09,0,34.091-15.001,34.091-34.091V67.364z"/>
	<path fill="#004463" d="M158.455,292.363H138c-7.5,0-13.636-6.139-13.636-13.636v-95.455c0-4.088-2.727-6.817-6.818-6.817
		s-6.818,2.729-6.818,6.817v95.455c0,7.497-6.136,13.636-13.637,13.636H76.637c-4.092,0-6.818,2.73-6.818,6.818
		S72.545,306,76.637,306h20.454H138h20.455c4.088,0,6.817-2.73,6.817-6.818S162.543,292.363,158.455,292.363"/>
	<path fill="#006CE7" d="M22.773,94.636c3.409,15.681,17.046,27.273,33.408,27.273h13.637c4.092,0,6.818,2.727,6.818,6.818v6.818
		c0,22.499,18.41,40.91,40.909,40.91c22.498,0,40.909-18.411,40.909-40.91v-6.818c0-4.092,2.729-6.818,6.817-6.818h13.637
		c16.366,0,30.003-11.592,33.411-27.273H22.773z"/>
	<path fill="#3DB9FF" d="M183.004,94.636c-5.46,12.271-10.228,20.455-24.549,20.455h-13.637c-4.088,0-6.818,2.727-6.818,6.818v6.818
		c0,27.272-23.181,38.179-43.636,40.909c6.818,4.773,14.319,6.818,23.182,6.818c22.498,0,40.909-18.411,40.909-40.91v-6.818
		c0-4.092,2.729-6.818,6.817-6.818h13.637c16.366,0,30.003-11.592,33.411-27.273H183.004z"/>
	<path fill="#014463" d="M219.818,53.728H15.272c-4.091,0-6.817,2.727-6.817,6.818v27.273c0,26.59,21.137,47.727,47.727,47.727H63
		c0,30.002,24.546,54.545,54.546,54.545c30.002,0,54.545-24.543,54.545-54.545h6.818c26.594,0,47.728-21.137,47.728-47.727V60.545
		C226.637,56.454,223.906,53.728,219.818,53.728 M213,87.818c0,4.774-0.68,9.545-2.73,13.636
		c-19.089-1.365-34.09-15.681-37.5-34.091H213V87.818z M165.272,121.909c-4.088,0-6.817,2.727-6.817,6.818v6.818
		c0,22.499-18.411,40.91-40.909,40.91c-22.499,0-40.909-18.411-40.909-40.91v-6.818c0-4.092-2.727-6.818-6.818-6.818H56.182
		c-19.089,0-34.091-15.001-34.091-34.091V67.364h137.043c2.729,22.499,19.775,41.591,42.274,46.362
		c-6.133,4.774-13.637,8.183-21.82,8.183H165.272z"/>
	<path fill="#FFD700" d="M210.276,101.455C212.32,97.363,213,92.592,213,87.818V67.364h-40.224
		C175.5,85.774,191.181,100.09,210.276,101.455"/>
	<path fill="#DDCA8C" d="M186.413,67.364C189.137,78.956,200.05,87.818,213,87.818V67.364H186.413z"/>
	<path fill="#00CEFF" d="M97.091,115.091c3.763,0,6.818,3.056,6.818,6.818c0,3.762-3.056,6.818-6.818,6.818
		c-3.762,0-6.818-3.057-6.818-6.818C90.272,118.147,93.329,115.091,97.091,115.091"/>
	<path fill="#00CEFF" d="M124.364,101.455c3.762,0,6.817,3.056,6.817,6.818c0,3.762-3.056,6.818-6.817,6.818
		c-3.763,0-6.818-3.056-6.818-6.818C117.546,104.511,120.602,101.455,124.364,101.455"/>
	<path fill="#00CEFF" d="M56.182,97.955c3.762,0,6.817,3.056,6.817,6.818c0,3.762-3.056,6.818-6.817,6.818
		c-3.763,0-6.818-3.056-6.818-6.818C49.364,101.011,52.419,97.955,56.182,97.955"/>
	<path fill="#00CEFF" d="M110.728,142.364c3.762,0,6.818,3.056,6.818,6.818c0,3.762-3.057,6.818-6.818,6.818
		s-6.818-3.056-6.818-6.818C103.909,145.42,106.966,142.364,110.728,142.364"/>
	<rect x="42.546" y="67.364" fill="#FFFFFF" width="13.636" height="27.272"/>
</g>
<circle fill="#FFFFFF" cx="54.636" cy="102.772" r="3.454"/>
<circle fill="#FFFFFF" cx="95.636" cy="120.022" r="3.454"/>
<circle fill="#FFFFFF" cx="109.25" cy="147.25" r="3.454"/>
<circle fill="#FFFFFF" cx="123" cy="106.25" r="2.454"/>
</svg>
